<?xml version="1.0"?>
<svg version="1.1" id="Layer_1" xmlns="http://www.w3.org/2000/svg" x="0" y="0" viewBox="0 0 100 100" xml:space="preserve"><path d="M50 27.5c-2.2 0-4-1.8-4-4v-12c0-2.2 1.8-4 4-4s4 1.8 4 4v12c0 2.2-1.8 4-4 4z" fill="#d65a62"/><path d="M34.1 34.1c-1.6 1.6-4.1 1.6-5.7 0l-8.5-8.5c-1.6-1.6-1.6-4.1 0-5.7 1.6-1.6 4.1-1.6 5.7 0l8.5 8.5c1.6 1.6 1.6 4.1 0 5.7z" fill="#ea7c60"/><path d="M27.5 50c0 2.2-1.8 4-4 4h-12c-2.2 0-4-1.8-4-4s1.8-4 4-4h12c2.2 0 4 1.8 4 4z" fill="#f0af6b"/><path d="M34.1 65.9c1.6 1.6 1.6 4.1 0 5.7l-8.5 8.5c-1.6 1.6-4.1 1.6-5.7 0-1.6-1.6-1.6-4.1 0-5.7l8.5-8.5c1.6-1.6 4.1-1.6 5.7 0z" fill="#a8b980"/><path d="M50 72.5c2.2 0 4 1.8 4 4v12c0 2.2-1.8 4-4 4s-4-1.8-4-4v-12c0-2.2 1.8-4 4-4z" fill="#d65a62"/><path d="M65.9 65.9c1.6-1.6 4.1-1.6 5.7 0l8.5 8.5c1.6 1.6 1.6 4.1 0 5.7-1.6 1.6-4.1 1.6-5.7 0l-8.5-8.5c-1.6-1.6-1.6-4.1 0-5.7z" fill="#ea7c60"/><path d="M72.5 50c0-2.2 1.8-4 4-4h12c2.2 0 4 1.8 4 4s-1.8 4-4 4h-12c-2.2 0-4-1.8-4-4z" fill="#f0af6b"/><path d="M65.9 34.1c-1.6-1.6-1.6-4.1 0-5.7l8.5-8.5c1.6-1.6 4.1-1.6 5.7 0 1.6 1.6 1.6 4.1 0 5.7l-8.5 8.5c-1.6 1.6-4.1 1.6-5.7 0z" fill="#a8b980"/><metadata xmlns:d="https://loading.io/stock/"><d:name>spinner</d:name><d:tags>loader,preloader,ajax spin,loading icon,spinner,spinner</d:tags><d:license>free</d:license><d:slug>gfoopo</d:slug></metadata></svg>