<svg width="44" height="37" viewBox="0 0 44 37" fill="none" xmlns="http://www.w3.org/2000/svg">
<path d="M33.5312 37C31.9125 37 30.5443 36.4411 29.4266 35.3234C28.3089 34.2057 27.75 32.8375 27.75 31.2188C27.75 29.6 28.3089 28.2318 29.4266 27.1141C30.5443 25.9964 31.9125 25.4375 33.5312 25.4375C33.8396 25.4375 34.1865 25.4668 34.5719 25.5254C34.9573 25.584 35.3812 25.7088 35.8438 25.9V13.875H43.9375V18.5H39.3125V31.2188C39.3125 32.8375 38.7536 34.2057 37.6359 35.3234C36.5182 36.4411 35.15 37 33.5312 37ZM18.5 18.5C15.9563 18.5 13.7786 17.5943 11.9672 15.7828C10.1557 13.9714 9.25 11.7937 9.25 9.25C9.25 6.70625 10.1557 4.52865 11.9672 2.71719C13.7786 0.90573 15.9563 0 18.5 0C21.0438 0 23.2214 0.90573 25.0328 2.71719C26.8443 4.52865 27.75 6.70625 27.75 9.25C27.75 11.7937 26.8443 13.9714 25.0328 15.7828C23.2214 17.5943 21.0438 18.5 18.5 18.5ZM0 37V30.525C0 29.176 0.337625 27.962 1.01287 26.8828C1.68812 25.8036 2.58383 24.975 3.7 24.3969C6.08958 23.2021 8.51771 22.3064 10.9844 21.7097C13.451 21.1131 15.9563 20.814 18.5 20.8125C20.1187 20.8125 21.7283 20.9381 23.3285 21.1894C24.9288 21.4407 26.5375 21.8161 28.1547 22.3156C25.6109 23.8573 24.0307 26.0642 23.4141 28.9363C22.7974 31.8084 23.2984 34.4963 24.9172 37H0Z" fill="#8FC93A"/>
</svg>
