<svg width="43" height="43" viewBox="0 0 43 43" fill="none" xmlns="http://www.w3.org/2000/svg">
<path d="M15.561 15.7336C15.4012 15.9255 15.2917 16.1541 15.2423 16.3988C15.1929 16.6435 15.2052 16.8967 15.2781 17.1355L15.2746 17.1247C15.3641 17.6243 15.7418 18.0163 16.2252 18.1256L16.2342 18.1273C17.235 18.2312 18.242 18.2629 19.2474 18.2222L19.208 18.224H21.607C21.8595 18.1828 22.0851 18.1148 22.2981 18.0253L22.2784 18.0325C22.4836 17.8892 22.6511 17.6984 22.7668 17.4765C22.8824 17.2546 22.9428 17.008 22.9426 16.7577L22.9409 16.6825V16.6861L22.9426 16.6234C22.9426 16.3742 22.8709 16.1303 22.736 15.9207C22.601 15.7112 22.4086 15.5449 22.1817 15.4418L22.1728 15.4382C21.9814 15.3125 21.7573 15.2459 21.5283 15.2467H19.1095C17.639 15.2467 16.7438 15.2622 16.424 15.2932C16.0958 15.3306 15.7914 15.4828 15.5646 15.7229L15.561 15.7336ZM21.5104 24.7427C18.9514 24.7427 17.4003 24.7749 16.8572 24.8394C16.4631 24.8525 16.0794 24.9699 15.7454 25.1796L15.7544 25.1742C15.5619 25.3381 15.4151 25.5491 15.3283 25.7865L15.3247 25.7972C15.2317 26.0262 15.199 26.2753 15.2298 26.5205V26.5134C15.2728 26.7694 15.373 26.9968 15.5198 27.1883L15.5163 27.1848C15.6686 27.4015 15.8825 27.5674 16.1303 27.661L16.1393 27.6646C17.9505 27.8267 19.7702 27.8733 21.5873 27.8042L21.5104 27.806L26.1152 27.7093L26.9745 27.6126C27.1857 27.4994 27.3661 27.3364 27.4999 27.1376C27.6338 26.9389 27.7171 26.7105 27.7426 26.4722V26.465C27.782 26.2335 27.7585 25.9957 27.6744 25.7765C27.5902 25.5572 27.4487 25.3647 27.2646 25.2189L27.2628 25.2172C26.9351 25.0015 26.5521 24.8853 26.1599 24.8824C25.6825 24.8513 24.1297 24.8358 21.505 24.8358L21.5104 24.7427ZM42.9033 37.3128C42.9678 36.7363 43 31.268 43 20.9078V8.44331C42.9355 6.71622 42.8717 5.56502 42.8084 4.98972C42.7481 4.61144 42.6149 4.24846 42.4163 3.92088L42.4235 3.93341L42.3268 3.55027C41.8827 2.66283 41.2396 1.88994 40.4477 1.29183C39.6558 0.693724 38.7365 0.286552 37.7614 0.10205L37.722 0.0966792C37.3401 0.0322264 31.8879 0 21.3653 0C10.8428 0 5.42283 0.0322264 5.10534 0.0966792C3.93366 0.391151 2.85843 0.984593 1.98475 1.819L1.98654 1.81721C1.12868 2.64339 0.51695 3.69145 0.219463 4.8447L0.210511 4.88946C0.0265585 5.78047 -0.0372677 6.6921 0.0207335 7.60006L0.0189431 7.57141V35.492C0.038637 36.4624 0.108461 37.3934 0.224834 38.3082L0.210511 38.1775C0.403869 38.9599 0.717182 39.6456 1.13612 40.2561L1.1218 40.2347C1.56402 40.8631 2.1065 41.3876 2.72954 41.7976L2.75282 41.812C3.37049 42.2327 4.092 42.5621 4.86364 42.7608L4.91198 42.7716C5.72839 42.8736 6.69339 42.9417 7.67092 42.9578H35.3247C36.2951 42.9381 37.2261 42.8683 38.141 42.7519L38.0103 42.7662C39.3022 42.4762 40.4732 41.7948 41.3636 40.8147L41.369 40.8094C42.2475 39.8528 42.7862 38.6333 42.9015 37.3396L42.9033 37.3164V37.3128ZM34.75 19.4665C34.8145 19.8485 34.83 21.3357 34.7966 23.9281C34.8359 25.5013 34.7502 27.0752 34.5406 28.6349L34.5567 28.4845C34.2037 29.8995 33.4743 31.1925 32.4459 32.2264C31.1966 33.5816 29.5161 34.4617 27.6907 34.7168L27.6495 34.7221C27.0766 34.7866 24.9019 34.8021 21.1254 34.7687C17.349 34.7353 15.2382 34.6875 14.793 34.6255C13.3781 34.3348 12.0673 33.6695 10.9974 32.699L11.0046 32.7044C9.87792 31.7545 9.0369 30.5106 8.57505 29.1112L8.55894 29.0557C8.34298 28.3413 8.23024 27.5998 8.22414 26.8535V26.8482C8.19311 25.953 8.17759 23.9705 8.17759 20.9006C8.24204 17.191 8.3059 15.144 8.36916 14.7597C8.71888 13.4171 9.36148 12.1686 10.2508 11.1038L10.2383 11.1181C11.1124 10.0934 12.2323 9.30734 13.4932 8.83361L13.5487 8.81571C14.2372 8.49921 14.9758 8.30591 15.7311 8.24459L15.7562 8.24279C16.52 8.17834 17.9267 8.14612 19.976 8.14612C22.1507 8.21057 23.398 8.27442 23.7179 8.33768C25.2558 8.85689 26.5717 9.67866 27.6531 10.7385L27.6513 10.7368C28.3927 11.4429 28.9865 12.2891 29.3984 13.2265C29.8102 14.1639 30.0318 15.1737 30.0504 16.1973V16.2045C30.0286 16.5853 30.079 16.9668 30.199 17.3288L30.1936 17.3074C30.3054 17.5456 30.4871 17.7442 30.7146 17.8767L30.72 17.8803C30.9163 18.02 31.1474 18.103 31.3878 18.1202H31.3913L32.5372 18.2169C33.051 18.2294 33.5433 18.2992 34.016 18.4192L33.9712 18.4084C34.1711 18.5135 34.3447 18.6622 34.4792 18.8435C34.6137 19.0248 34.7057 19.2341 34.7483 19.4558L34.75 19.4665Z" fill="#8FC93A"/>
</svg>
