<svg width="45" height="45" viewBox="0 0 45 45" fill="none" xmlns="http://www.w3.org/2000/svg">
<path d="M14.4 33.75L22.5 25.65L30.6 33.75L33.75 30.6L25.65 22.5L33.75 14.4L30.6 11.25L22.5 19.35L14.4 11.25L11.25 14.4L19.35 22.5L11.25 30.6L14.4 33.75ZM22.5 45C19.3875 45 16.4625 44.409 13.725 43.227C10.9875 42.045 8.60625 40.4422 6.58125 38.4187C4.55625 36.3952 2.9535 34.014 1.773 31.275C0.592503 28.536 0.00150285 25.611 2.8481e-06 22.5C-0.00149715 19.389 0.589503 16.464 1.773 13.725C2.9565 10.986 4.55925 8.60475 6.58125 6.58125C8.60325 4.55775 10.9845 2.955 13.725 1.773C16.4655 0.591 19.3905 0 22.5 0C25.6095 0 28.5345 0.591 31.275 1.773C34.0155 2.955 36.3967 4.55775 38.4187 6.58125C40.4407 8.60475 42.0442 10.986 43.2292 13.725C44.4142 16.464 45.0045 19.389 45 22.5C44.9955 25.611 44.4045 28.536 43.227 31.275C42.0495 34.014 40.4467 36.3952 38.4187 38.4187C36.3907 40.4422 34.0095 42.0457 31.275 43.2292C28.5405 44.4127 25.6155 45.003 22.5 45Z" fill="#FF000E"/>
</svg>
