<svg width="36" height="46" viewBox="0 0 36 46" fill="none" xmlns="http://www.w3.org/2000/svg">
<path fill-rule="evenodd" clip-rule="evenodd" d="M24.75 0.5C25.5399 0.50002 26.3159 0.707958 26.9999 1.10291C27.684 1.49787 28.2521 2.06593 28.647 2.75H31.5C32.6935 2.75 33.8381 3.22411 34.682 4.06802C35.5259 4.91193 36 6.05653 36 7.25V34.25C36 37.2337 34.8147 40.0952 32.705 42.205C30.5952 44.3147 27.7337 45.5 24.75 45.5H4.5C3.30653 45.5 2.16193 45.0259 1.31802 44.182C0.474106 43.3381 0 42.1935 0 41V7.25C0 6.05653 0.474106 4.91193 1.31802 4.06802C2.16193 3.22411 3.30653 2.75 4.5 2.75H7.353C7.74795 2.06593 8.316 1.49787 9.00006 1.10291C9.68413 0.707958 10.4601 0.50002 11.25 0.5H24.75ZM24.354 17.1027L14.8095 26.6495L11.6257 23.4657C11.2014 23.0559 10.633 22.8291 10.0431 22.8342C9.45316 22.8394 8.88883 23.076 8.47166 23.4932C8.05449 23.9103 7.81786 24.4747 7.81273 25.0646C7.80761 25.6545 8.03439 26.2229 8.44425 26.6473L13.0568 31.262C13.2866 31.4919 13.5595 31.6744 13.8598 31.7988C14.1602 31.9233 14.4821 31.9873 14.8073 31.9873C15.1324 31.9873 15.4543 31.9233 15.7547 31.7988C16.055 31.6744 16.3279 31.4919 16.5578 31.262L27.5378 20.2843C27.7467 20.0752 27.9123 19.8271 28.0253 19.554C28.1383 19.2809 28.1964 18.9882 28.1963 18.6927C28.1962 18.3972 28.1379 18.1046 28.0247 17.8316C27.9115 17.5586 27.7457 17.3105 27.5366 17.1016C27.3276 16.8927 27.0794 16.727 26.8064 16.614C26.5333 16.501 26.2406 16.4429 25.9451 16.443C25.6495 16.4431 25.3569 16.5015 25.0839 16.6147C24.8109 16.7278 24.5629 16.8937 24.354 17.1027ZM23.625 5H12.375C12.1117 4.99991 11.8567 5.09219 11.6544 5.26075C11.4521 5.42932 11.3154 5.66349 11.268 5.9225L11.25 6.125V8.375C11.2499 8.63831 11.3422 8.8933 11.5108 9.09558C11.6793 9.29786 11.9135 9.4346 12.1725 9.482L12.375 9.5H23.625C23.8883 9.50009 24.1433 9.40781 24.3456 9.23925C24.5479 9.07068 24.6846 8.83651 24.732 8.5775L24.75 8.375V6.125C24.7501 5.86169 24.6578 5.6067 24.4892 5.40442C24.3207 5.20214 24.0865 5.06539 23.8275 5.018L23.625 5Z" fill="#8FC93A"/>
</svg>
