<svg width="39" height="44" viewBox="0 0 39 44" fill="none" xmlns="http://www.w3.org/2000/svg">
<path fill-rule="evenodd" clip-rule="evenodd" d="M11.6001 10.0383V7.90003C11.6001 5.80481 12.4324 3.79541 13.9139 2.31386C15.3955 0.832322 17.4049 0 19.5001 0C21.5953 0 23.6047 0.832322 25.0862 2.31386C26.5678 3.79541 27.4001 5.80481 27.4001 7.90003V10.0383C30.1114 10.1205 31.7715 10.4112 33.0376 11.4624C34.7924 12.9202 35.2559 15.385 36.1807 20.3168L37.7607 28.7435C39.0606 35.6786 39.7094 39.1462 37.8155 41.4299C35.9195 43.7135 32.3908 43.7135 25.3356 43.7135H13.6646C6.60724 43.7135 3.08066 43.7135 1.18466 41.4299C-0.71135 39.1462 -0.0582813 35.6786 1.23943 28.7435L2.81944 20.3168C3.74637 15.3872 4.20773 12.9202 5.96259 11.4624C7.2287 10.4112 8.88876 10.1205 11.6001 10.0383ZM14.7601 7.90003C14.7601 6.6429 15.2595 5.43726 16.1484 4.54833C17.0373 3.6594 18.243 3.16001 19.5001 3.16001C20.7572 3.16001 21.9629 3.6594 22.8518 4.54833C23.7407 5.43726 24.2401 6.6429 24.2401 7.90003V10.0067H14.7601V7.90003ZM15.2867 38.9735C16.8232 38.9735 18.2968 38.3631 19.3833 37.2766C20.4697 36.1902 21.0801 34.7166 21.0801 33.1801V27.1003C21.3898 27.1445 21.7121 27.1508 22.0344 27.1129C22.4515 27.0644 22.8286 26.9233 23.1467 26.7843C23.4606 26.6473 23.8335 26.4598 24.2633 26.245L27.1494 24.8019C27.4687 24.6555 27.7735 24.4791 28.0595 24.2752C28.7795 23.7247 29.2715 22.9282 29.4415 22.0379C29.5068 21.6882 29.5068 21.3259 29.5068 20.9846V20.8603C29.5068 20.3821 29.5068 19.9628 29.4878 19.6237C29.4773 19.2345 29.4092 18.849 29.2856 18.4797C29.0026 17.6988 28.4641 17.0363 27.7575 16.5996C27.0509 16.163 26.2175 15.9777 25.3925 16.0739C24.9753 16.1224 24.5982 16.2635 24.2801 16.4026C23.9662 16.5395 23.5934 16.727 23.1636 16.9419L20.2774 18.3849C19.9581 18.5313 19.6534 18.7077 19.3674 18.9116C18.6473 19.4621 18.1554 20.2586 17.9854 21.1489C17.918 21.4986 17.9201 21.9452 17.9201 22.2865V28.0167C17.1398 27.6189 16.2796 27.4032 15.4039 27.3858C14.5283 27.3684 13.6602 27.5498 12.8647 27.9162C12.0693 28.2827 11.3673 28.8247 10.8115 29.5015C10.2557 30.1784 9.86065 30.9724 9.65595 31.824C9.45126 32.6755 9.44228 33.5623 9.62971 34.4178C9.81714 35.2733 10.1961 36.0752 10.7381 36.7632C11.28 37.4511 11.9709 38.0072 12.7588 38.3897C13.5466 38.7722 14.4109 38.9732 15.2867 38.9735Z" fill="#FF000E"/>
</svg>
