<svg width="58" height="57" viewBox="0 0 58 57" fill="none" xmlns="http://www.w3.org/2000/svg">
<path d="M57.2207 0V9.59835C51.8364 10.271 47.3981 12.6067 43.1638 15.2805L46.1461 17.6981L33.8815 23.9525L37.2482 10.4833L40.3697 13.0137C42.8068 8.19263 45.5244 3.64746 49.1359 0H57.2207ZM23.7976 0C25.6802 3.46611 27.317 7.00404 28.832 10.6226L32.4698 9.85067L29.3441 23.3765L21.2635 12.2305L24.8293 11.4738C20.8179 7.28685 16.684 3.30489 11.8081 0H23.7976ZM-0.000679016 11.308C4.57678 11.607 8.67996 13.679 12.6552 16.237L14.1578 12.3173L23.8051 22.2996L10.057 23.015L11.6536 18.8503C7.76876 18.7377 3.88416 19.0704 -0.000679016 21.4259V11.308ZM23.3795 26.7353C24.0157 26.7497 24.6097 27.0264 25.4204 27.8914L26.2113 28.7311L27.0322 27.9213C27.9223 27.0441 28.6247 26.8019 29.3367 26.8332C30.0486 26.8646 30.8857 27.2389 31.822 27.9968L32.5712 28.6029L33.2829 27.9553C34.3553 26.9851 35.2693 26.6976 36.1447 26.7427C36.7819 26.7758 37.4431 27.0158 38.1028 27.4356L33.1663 36.3148C31.3041 37.4538 27.4989 37.8821 24.8821 36.5634L20.1111 27.7256C21.016 27.3567 21.8294 26.9783 22.5324 26.8332C22.7868 26.7806 23.023 26.7421 23.2517 26.7353C23.2943 26.7342 23.3369 26.7342 23.3795 26.7353ZM34.2206 38.3259C36.3938 39.8613 38.1387 42.5094 38.8146 46.3878C39.4695 50.1468 38.4377 52.6856 36.6116 54.4158C34.7855 56.1462 32.0446 57.0351 29.2613 56.9989C26.4778 56.9628 23.702 55.9976 21.8356 54.2352C19.9691 52.4727 18.9136 49.9665 19.5122 46.3802C20.1312 42.6741 21.7294 40.0965 23.7525 38.5366C27.1845 40.3508 31.4757 39.9652 34.2206 38.3257V38.3259Z" fill="#8FC93A"/>
</svg>
