<svg width="57" height="55" viewBox="0 0 57 55" fill="none" xmlns="http://www.w3.org/2000/svg">
<path d="M8.68421 0C7.23684 0 6.07895 0.578947 5.21053 1.73684L1.44737 6.36842C0.578947 7.52632 0 8.68421 0 10.1316V46.3158C0 49.5 2.60526 52.1053 5.78947 52.1053H29.8158C29.2368 50.3684 28.9474 48.3421 28.9474 46.3158C28.9474 36.7632 36.7632 28.9474 46.3158 28.9474C48.3421 28.9474 50.3684 29.2368 52.1053 29.8158V10.1316C52.1053 8.68421 51.5263 7.52632 50.6579 6.36842L46.6053 1.44737C46.0263 0.578947 44.8684 0 43.421 0H8.68421ZM8.39474 2.89474H43.1316L45.7368 5.78947H6.07895L8.39474 2.89474ZM8.68421 34.7368H26.0526V43.4211H8.68421V34.7368ZM52.9737 37.0526L42.5526 47.4737L37.9211 42.8421L34.7368 46.3158L42.8421 55L56.7368 41.1053L52.9737 37.0526Z" fill="#ED0084"/>
</svg>
