<svg width="45" height="40" viewBox="0 0 45 40" fill="none" xmlns="http://www.w3.org/2000/svg">
<path d="M2.22222 0H42.2222C42.8116 0 43.3768 0.234126 43.7936 0.650874C44.2103 1.06762 44.4444 1.63285 44.4444 2.22222V37.7778C44.4444 38.3671 44.2103 38.9324 43.7936 39.3491C43.3768 39.7659 42.8116 40 42.2222 40H2.22222C1.63285 40 1.06762 39.7659 0.650874 39.3491C0.234126 38.9324 0 38.3671 0 37.7778V2.22222C0 1.63285 0.234126 1.06762 0.650874 0.650874C1.06762 0.234126 1.63285 0 2.22222 0ZM20 12.2222V27.7778H24.4444V12.2222H20ZM19.3667 12.2222H14.6689L11.3422 21.3622L8.01556 12.2222H3.31778L9.12 27.6978H13.5644L19.3667 12.2222ZM31.1111 23.3333H34.4444C35.9179 23.3333 37.3309 22.748 38.3728 21.7062C39.4147 20.6643 40 19.2512 40 17.7778C40 16.3044 39.4147 14.8913 38.3728 13.8494C37.3309 12.8075 35.9179 12.2222 34.4444 12.2222H26.6667V27.7778H31.1111V23.3333ZM31.1111 18.8889V16.6667H34.4444C34.7391 16.6667 35.0217 16.7837 35.2301 16.9921C35.4385 17.2005 35.5556 17.4831 35.5556 17.7778C35.5556 18.0725 35.4385 18.3551 35.2301 18.5635C35.0217 18.7718 34.7391 18.8889 34.4444 18.8889H31.1111Z" fill="#ED0084"/>
</svg>
